<svg width="21" height="24" viewBox="0 0 21 24" fill="none" xmlns="http://www.w3.org/2000/svg">
<path d="M17.9853 1H2.54412L1 3.16177M17.9853 1L19.5294 3.16177L13.3529 11.8088M17.9853 1L11.8088 9.64706M1 3.16177H13.3529L10.2647 7.4853L8.72059 5.32353M1 3.16177L8.72059 13.9706L2.54412 22.6177M1 3.16177L11.8088 18.2941H8.72059H14.8971L5.63235 5.32353M8.72059 5.32353L14.8971 13.9706M8.72059 5.32353L19.5294 20.4559M11.8088 5.32353H5.63235M5.63235 5.32353L11.8088 13.9706M19.5294 20.4559L17.9853 22.6177H2.54412M19.5294 20.4559H7.17647L10.2647 16.1324M2.54412 22.6177L1 20.4559L7.17647 11.8088" stroke="#F7F7F7" stroke-linecap="round" stroke-linejoin="round"/>
</svg>
